<svg width="24" height="24" viewBox="0 0 24 24" fill="none" xmlns="http://www.w3.org/2000/svg">
<path d="M4.70495 0.00585938C2.11975 0.00585938 0.00390625 2.12165 0.00390625 4.70691V19.2951C0.00390625 21.8803 2.1197 23.9954 4.70495 23.9954H19.2931C21.8784 23.9954 23.9934 21.8803 23.9934 19.2951V4.70691C23.9934 2.1217 21.8784 0.00585938 19.2931 0.00585938H4.70495ZM5.88734 3.96461C7.12689 3.96461 7.8904 4.77836 7.91397 5.84801C7.91397 6.89405 7.12684 7.73067 5.86336 7.73067H5.84011C4.62415 7.73067 3.83822 6.8941 3.83822 5.84801C3.83822 4.77838 4.64793 3.96461 5.88731 3.96461H5.88734ZM16.5693 8.96405C18.9532 8.96405 20.7402 10.5222 20.7402 13.8705V20.1213H17.1173V14.2896C17.1173 12.8242 16.593 11.8244 15.2819 11.8244C14.281 11.8244 13.6844 12.4982 13.4225 13.1492C13.3268 13.3821 13.3033 13.7074 13.3033 14.0332V20.1213H9.68042C9.68042 20.1213 9.72796 10.2426 9.68042 9.2197H13.304V10.7635C13.7855 10.0207 14.6466 8.96403 16.5693 8.96403V8.96405ZM4.05191 9.22049H7.67479V20.1213H4.05191V9.22049Z" fill="#1A1A1A"/>
</svg>
