<svg width="40" height="40" viewBox="0 0 40 40" fill="none" xmlns="http://www.w3.org/2000/svg">
<rect width="40" height="40" rx="20" fill="#E6E6E6"/>
<path fill-rule="evenodd" clip-rule="evenodd" d="M12.5 29.5C12.5 29.5 11 29.5 11 28C11 26.5 12.5 22 20 22C27.5 22 29 26.5 29 28C29 29.5 27.5 29.5 27.5 29.5H12.5ZM20 20.5C21.1935 20.5 22.3381 20.0259 23.182 19.182C24.0259 18.3381 24.5 17.1935 24.5 16C24.5 14.8065 24.0259 13.6619 23.182 12.818C22.3381 11.9741 21.1935 11.5 20 11.5C18.8065 11.5 17.6619 11.9741 16.818 12.818C15.9741 13.6619 15.5 14.8065 15.5 16C15.5 17.1935 15.9741 18.3381 16.818 19.182C17.6619 20.0259 18.8065 20.5 20 20.5Z" fill="#999999"/>
</svg>
